<?xml version="1.0" standalone="no"?>
<!DOCTYPE svg PUBLIC "-//W3C//DTD SVG 1.1//EN" "http://www.w3.org/Graphics/SVG/1.1/DTD/svg11.dtd">
<svg width="100%" height="100%" viewBox="0 0 3000 1200" version="1.1" xmlns="http://www.w3.org/2000/svg" xmlns:xlink="http://www.w3.org/1999/xlink" xml:space="preserve" style="fill-rule:evenodd;clip-rule:evenodd;stroke-linejoin:round;stroke-miterlimit:1.41421;">
    <g transform="matrix(1,0,0,1,-1090.56,-229.641)">
        <path d="M1367.24,822.891L1367.24,568.891L1330.24,568.891L1330.24,822.891C1330.24,881.391 1309.24,911.391 1269.24,911.391C1232.74,911.391 1208.74,888.391 1206.24,850.891L1169.74,850.891C1172.74,909.891 1209.74,945.391 1268.74,945.391C1331.74,945.391 1367.24,904.891 1367.24,822.891Z" style="fill:black;fill-rule:nonzero;stroke-width:1px;stroke:black;"/>
        <path d="M1677.74,938.391L1677.74,664.891L1640.74,664.891L1640.74,805.391C1640.74,879.891 1605.74,910.891 1555.74,910.891C1502.74,910.891 1473.74,881.891 1473.74,812.391L1473.74,664.891L1436.74,664.891L1436.74,812.391C1436.74,907.891 1483.24,944.891 1552.74,944.891C1595.24,944.891 1622.24,929.891 1640.74,895.891L1640.74,938.391L1677.74,938.391Z" style="fill:black;fill-rule:nonzero;stroke-width:1px;stroke:black;"/>
        <path d="M1982.74,938.391L1982.74,794.891C1982.74,698.891 1934.24,658.391 1865.74,658.391C1829.74,658.391 1800.74,672.391 1777.74,700.391L1777.74,664.891L1740.74,664.891L1740.74,938.391L1777.74,938.391L1777.74,787.891C1777.74,720.891 1811.74,692.391 1861.24,692.391C1911.74,692.391 1945.74,720.391 1945.74,794.891L1945.74,938.391L1982.74,938.391Z" style="fill:black;fill-rule:nonzero;stroke-width:1px;stroke:black;"/>
        <path d="M2082.74,938.391L2082.74,664.891L2045.74,664.891L2045.74,938.391L2082.74,938.391ZM2082.74,634.891L2082.74,571.891L2045.74,571.891L2045.74,634.891L2082.74,634.891Z" style="fill:black;fill-rule:nonzero;stroke-width:1px;stroke:black;"/>
        <path d="M2420.74,802.391C2420.74,718.891 2360.74,658.391 2278.74,658.391C2197.74,658.391 2135.24,719.891 2135.24,799.891C2135.24,883.891 2196.74,944.891 2281.74,944.891C2361.74,944.891 2420.74,884.391 2420.74,802.391ZM2383.24,802.891C2383.24,865.391 2340.24,910.891 2280.74,910.891C2217.74,910.891 2172.74,864.891 2172.74,800.891C2172.74,738.891 2218.24,692.391 2278.74,692.391C2338.74,692.391 2383.24,739.391 2383.24,802.891Z" style="fill:black;fill-rule:nonzero;stroke-width:1px;stroke:black;"/>
        <path d="M2587.74,694.891L2587.74,658.391C2548.24,660.391 2524.74,673.891 2510.24,703.891L2510.24,664.891L2473.24,664.891L2473.24,938.391L2510.24,938.391L2510.24,778.891C2510.24,727.891 2536.24,699.891 2587.74,694.891Z" style="fill:black;fill-rule:nonzero;stroke-width:1px;stroke:black;"/>
        <path d="M2923.38,826.391C2923.38,776.391 2902.88,743.891 2827.88,715.891C2792.88,702.891 2791.88,702.391 2786.88,699.391C2773.38,690.891 2766.38,679.391 2766.38,665.891C2766.38,643.891 2781.88,628.391 2804.38,628.391C2827.38,628.391 2841.38,642.391 2843.38,667.391L2914.38,667.391C2910.88,602.391 2864.38,562.391 2804.88,562.391C2745.38,562.391 2697.38,608.891 2697.38,667.391C2697.38,713.891 2724.88,749.391 2774.38,767.891C2823.38,786.391 2827.38,787.891 2838.38,796.391C2849.38,804.891 2855.38,818.891 2855.38,833.891C2855.38,860.391 2834.88,878.891 2805.38,878.891C2774.88,878.891 2758.38,863.891 2755.38,832.891L2683.88,832.891C2689.88,902.891 2740.38,944.891 2805.38,944.891C2871.88,944.891 2923.38,893.391 2923.38,826.391Z" style="fill:black;fill-rule:nonzero;stroke-width:1px;stroke:black;"/>
        <path d="M3237.38,847.391L3162.38,847.391C3145.88,872.891 3126.88,883.891 3099.38,883.891C3053.38,883.891 3018.88,847.891 3018.88,799.391C3018.88,750.891 3051.88,715.891 3097.88,715.891C3127.88,715.891 3148.88,728.391 3162.38,753.891L3237.38,753.891C3215.88,690.391 3160.88,654.891 3097.88,654.891C3015.88,654.891 2951.88,718.391 2951.88,799.891C2951.88,880.391 3017.88,944.891 3099.88,944.891C3164.38,944.891 3214.38,909.391 3237.38,847.391Z" style="fill:black;fill-rule:nonzero;stroke-width:1px;stroke:black;"/>
        <path d="M3409.88,718.891L3409.88,654.891L3404.88,654.891C3376.38,654.891 3362.38,662.891 3344.88,688.391L3344.88,661.391L3283.88,661.391L3283.88,938.391L3350.38,938.391L3350.38,784.391C3350.38,741.391 3369.88,719.891 3409.88,718.891Z" style="fill:black;fill-rule:nonzero;stroke-width:1px;stroke:black;"/>
        <path d="M3510.38,938.391L3510.38,661.391L3443.88,661.391L3443.88,938.391L3510.38,938.391ZM3510.88,621.391L3510.88,554.891L3444.38,554.891L3444.38,621.391L3510.88,621.391Z" style="fill:black;fill-rule:nonzero;stroke-width:1px;stroke:black;"/>
        <path d="M3853.88,798.891C3853.88,715.391 3795.88,654.891 3715.88,654.891C3678.38,654.891 3646.38,668.891 3624.88,693.891L3624.88,661.391L3563.88,661.391L3563.88,1030.89L3630.38,1030.89L3630.38,912.391C3655.38,934.891 3681.38,944.891 3715.38,944.891C3795.38,944.891 3853.88,882.891 3853.88,798.891ZM3786.88,800.391C3786.88,847.391 3752.38,883.891 3708.38,883.891C3661.38,883.891 3626.38,847.891 3626.38,799.391C3626.38,751.891 3661.38,715.891 3707.38,715.891C3752.38,715.891 3786.88,752.391 3786.88,800.391Z" style="fill:black;fill-rule:nonzero;stroke-width:1px;stroke:black;"/>
        <path d="M4010.38,721.891L4010.38,661.391L3970.38,661.391L3970.38,568.891L3903.88,568.891L3903.88,661.391L3871.38,661.391L3871.38,721.891L3903.88,721.891L3903.88,938.391L3970.38,938.391L3970.38,721.891L4010.38,721.891Z" style="fill:black;fill-rule:nonzero;stroke-width:1px;stroke:black;"/>
    </g>
    <g id="Layer1" transform="matrix(1,0,0,1,-13,0)">
        <rect x="1572" y="275" width="1398" height="564" style="fill:none;stroke-width:19.44px;stroke-linecap:round;stroke:black;"/>
    </g>
</svg>
